# xmcd
#
# Track frame offsets:
#	150
#	17139
#	31875
#	48761
#	65898
#	81455
#	99146
#	118044
#	132566
#	149944
#	164292
#	181306
#
# Disc length: 2613 seconds
#
# Revision: 1
# Processed by: cddbd v1.5.2PL0 Copyright (c) Steve Scherf et al.
# Submitted via: EasyCDDAExtractor 6.0.0.1
#
DISCID=ac0a330c
DTITLE=Tantowi Yahya - Country Breeze
DYEAR=2001
DGENRE=Country
TTITLE0=Aryati
TTITLE1=Hidupku Sunyi
TTITLE2=Love Is A Desire [w. Mark Allan]
TTITLE3=You're My Kind Of Woman, My Kind Of Man [w. Pinky Warouw]
TTITLE4=Nusantara
TTITLE5=Old Country
TTITLE6=Patah Hati
TTITLE7=The Heart That You Own
TTITLE8=Look At Us
TTITLE9=Just Call Me Lonesome
TTITLE10=Pusara Cinta
TTITLE11=Hidupku Sunyi [minus one]
EXTD=Bought in Indonesia. Singer used to be a TV presenter.\n
EXTT0=
EXTT1=
EXTT2=
EXTT3=
EXTT4=
EXTT5=
EXTT6=
EXTT7=
EXTT8=
EXTT9=
EXTT10=
EXTT11=
PLAYORDER=
